<?xml version="1.0" encoding="UTF-8" standalone="no"?>
<!-- Created with Inkscape (http://www.inkscape.org/) -->

<svg
   xmlns:dc="http://purl.org/dc/elements/1.1/"
   xmlns:cc="http://creativecommons.org/ns#"
   xmlns:rdf="http://www.w3.org/1999/02/22-rdf-syntax-ns#"
   xmlns:svg="http://www.w3.org/2000/svg"
   xmlns="http://www.w3.org/2000/svg"
   xmlns:sodipodi="http://sodipodi.sourceforge.net/DTD/sodipodi-0.dtd"
   xmlns:inkscape="http://www.inkscape.org/namespaces/inkscape"
   width="349.58798"
   height="34"
   viewBox="0 0 92.495155 8.9958328"
   version="1.1"
   id="svg987"
   inkscape:version="0.92.4 5da689c313, 2019-01-14"
   sodipodi:docname="post_separator.svg">
  <defs
     id="defs981" />
  <sodipodi:namedview
     id="base"
     pagecolor="#ffffff"
     bordercolor="#666666"
     borderopacity="1.0"
     inkscape:pageopacity="0.0"
     inkscape:pageshadow="2"
     inkscape:zoom="11.313708"
     inkscape:cx="172.8407"
     inkscape:cy="17.226118"
     inkscape:document-units="mm"
     inkscape:current-layer="layer1"
     showgrid="false"
     fit-margin-top="1"
     fit-margin-left="1"
     fit-margin-right="1"
     fit-margin-bottom="1"
     inkscape:window-width="1919"
     inkscape:window-height="1006"
     inkscape:window-x="1"
     inkscape:window-y="24"
     inkscape:window-maximized="1"
     units="px" />
  <metadata
     id="metadata984">
    <rdf:RDF>
      <cc:Work
         rdf:about="">
        <dc:format>image/svg+xml</dc:format>
        <dc:type
           rdf:resource="http://purl.org/dc/dcmitype/StillImage" />
        <dc:title />
      </cc:Work>
    </rdf:RDF>
  </metadata>
  <g
     inkscape:label="Layer 1"
     inkscape:groupmode="layer"
     id="layer1"
     transform="translate(48.77888,-115.87265)">
    <path
       style="fill:none;fill-opacity:1;stroke:#400040;stroke-width:0.50000006;stroke-linecap:round;stroke-linejoin:round;stroke-miterlimit:4;stroke-dasharray:none;stroke-opacity:1;paint-order:normal"
       d="M 174.79102 1.25 A 15.750001 15.750001 0 0 0 159.04102 17 A 15.750001 15.750001 0 0 0 174.79102 32.75 A 15.750001 15.750001 0 0 0 190.54102 17 A 15.750001 15.750001 0 0 0 174.79102 1.25 z M 1 17 L 158.79102 17 L 1 17 z M 190.79102 17 L 348.58789 17 L 190.79102 17 z "
       transform="matrix(0.26458333,0,0,0.26458333,-48.77888,115.87265)"
       id="path923" />
    <path
       style="fill:#800080;fill-opacity:1;stroke:#400040;stroke-width:0.13229167;stroke-linecap:butt;stroke-linejoin:round;stroke-miterlimit:4;stroke-dasharray:none;stroke-opacity:1;paint-order:normal"
       d="m -5.4832472,117.98282 v 0.91204 h 1.0196828 v 2.95142 h -1.0196828 v 0.91205 h 2.9514148 2.95141473 v -0.91205 h -1.01968278 v -2.95142 h 1.01968278 v -0.91204 H -2.5318324 Z m 1.9317069,0.91204 h 1.0197079 1.0197068 v 0.37477 l -1.0196862,1.01971 v 1.28981 l 1.0196862,-1.0197 v 1.28683 h -1.0197068 -1.0197079 v -1.28683 l 1.0197079,1.0197 v -1.28981 l -1.0197079,-1.01971 z"
       id="path7235-5-3"
       inkscape:connector-curvature="0" />
    <path
       inkscape:connector-curvature="0"
       style="fill:#ffffff;fill-opacity:1;stroke:#400040;stroke-width:0.13229167;stroke-linejoin:round;stroke-miterlimit:4;stroke-dasharray:none;stroke-opacity:1;paint-order:normal"
       d="m -4.0075518,117.98281 v 0.91207 h 1.0196954 v 2.95142 h -1.0196954 v 0.91203 h 2.9514262 v -0.91203 h -1.0197068 v -2.95142 h 1.0197068 v -0.91207 h -1.0197068 -0.912024 z"
       id="rect4685-8-6-1-27-6" />
  </g>
</svg>
